<?xml version="1.0" encoding="UTF-8"?>
<svg xmlns="http://www.w3.org/2000/svg" width="578" height="579" viewBox="0 0 578 579" role="img" aria-labelledby="title desc">
  <title id="title">Tdarr logo vector</title>
  <desc id="desc">Scalable vector reconstruction of the Tdarr circular logo.</desc>
  <defs>
    <radialGradient id="baseGradient" cx="50%" cy="48%" r="55%">
      <stop offset="0" stop-color="#143f82"/>
      <stop offset="0.54" stop-color="#0e3978"/>
      <stop offset="1" stop-color="#0b2f64"/>
    </radialGradient>
    <radialGradient id="coreGradient" cx="50%" cy="48%" r="65%">
      <stop offset="0" stop-color="#143f82"/>
      <stop offset="0.56" stop-color="#103a78"/>
      <stop offset="0.82" stop-color="#0b315f"/>
      <stop offset="1" stop-color="#07294e"/>
    </radialGradient>
    <linearGradient id="cyanBand" x1="0" y1="0" x2="0" y2="1">
      <stop offset="0" stop-color="#69fffb"/>
      <stop offset="0.55" stop-color="#20f8f3"/>
      <stop offset="1" stop-color="#51f4f1"/>
    </linearGradient>
    <filter id="cyanGlow" x="-20%" y="-20%" width="140%" height="140%" color-interpolation-filters="sRGB">
      <feDropShadow dx="0" dy="0" stdDeviation="7" flood-color="#00fff9" flood-opacity="0.45"/>
      <feDropShadow dx="0" dy="0" stdDeviation="16" flood-color="#00b7ff" flood-opacity="0.18"/>
    </filter>
    <filter id="softInnerShadow" x="-20%" y="-20%" width="140%" height="140%" color-interpolation-filters="sRGB">
      <feDropShadow dx="0" dy="0" stdDeviation="9" flood-color="#001b43" flood-opacity="0.85"/>
    </filter>
    <clipPath id="logoDisc">
      <circle cx="289" cy="289" r="289"/>
    </clipPath>
  </defs>

  <g clip-path="url(#logoDisc)">
    <circle cx="289" cy="289" r="288.5" fill="url(#baseGradient)"/>

    <g stroke="#1478f4" stroke-width="4" stroke-linecap="butt" opacity="0.98">
      <line x1="560" y1="289" x2="577" y2="289"/>
      <line x1="559.34" y1="307.904" x2="576.298" y2="309.09"/>
      <line x1="557.363" y1="326.716" x2="574.197" y2="329.082"/>
      <line x1="554.078" y1="345.344" x2="570.707" y2="348.879"/>
      <line x1="549.502" y1="363.698" x2="565.843" y2="368.384"/>
      <line x1="543.657" y1="381.687" x2="559.631" y2="387.502"/>
      <line x1="536.571" y1="399.226" x2="552.101" y2="406.14"/>
      <line x1="528.279" y1="416.227" x2="543.289" y2="424.208"/>
      <line x1="518.821" y1="432.608" x2="533.238" y2="441.617"/>
      <line x1="508.244" y1="448.29" x2="521.997" y2="458.282"/>
      <line x1="496.598" y1="463.195" x2="509.621" y2="474.123"/>
      <line x1="483.941" y1="477.252" x2="496.17" y2="489.062"/>
      <line x1="470.334" y1="490.392" x2="481.71" y2="503.026"/>
      <line x1="455.844" y1="502.551" x2="466.311" y2="515.947"/>
      <line x1="440.541" y1="513.669" x2="450.048" y2="527.763"/>
      <line x1="424.5" y1="523.693" x2="433" y2="538.415"/>
      <line x1="407.799" y1="532.573" x2="415.251" y2="547.853"/>
      <line x1="390.518" y1="540.267" x2="396.887" y2="556.029"/>
      <line x1="372.744" y1="546.736" x2="377.997" y2="562.904"/>
      <line x1="354.561" y1="551.95" x2="358.674" y2="568.445"/>
      <line x1="336.059" y1="555.883" x2="339.011" y2="572.625"/>
      <line x1="317.327" y1="558.515" x2="319.104" y2="575.422"/>
      <line x1="298.458" y1="559.835" x2="299.051" y2="576.825"/>
      <line x1="279.542" y1="559.835" x2="278.949" y2="576.825"/>
      <line x1="260.673" y1="558.515" x2="258.896" y2="575.422"/>
      <line x1="241.941" y1="555.883" x2="238.989" y2="572.625"/>
      <line x1="223.439" y1="551.95" x2="219.326" y2="568.445"/>
      <line x1="205.256" y1="546.736" x2="200.003" y2="562.904"/>
      <line x1="187.482" y1="540.267" x2="181.113" y2="556.029"/>
      <line x1="170.201" y1="532.573" x2="162.749" y2="547.853"/>
      <line x1="153.5" y1="523.693" x2="145" y2="538.415"/>
      <line x1="137.459" y1="513.669" x2="127.952" y2="527.763"/>
      <line x1="122.156" y1="502.551" x2="111.689" y2="515.947"/>
      <line x1="107.666" y1="490.392" x2="96.29" y2="503.026"/>
      <line x1="94.059" y1="477.252" x2="81.83" y2="489.062"/>
      <line x1="81.402" y1="463.195" x2="68.379" y2="474.123"/>
      <line x1="69.756" y1="448.29" x2="56.003" y2="458.282"/>
      <line x1="59.179" y1="432.608" x2="44.762" y2="441.617"/>
      <line x1="49.721" y1="416.227" x2="34.711" y2="424.208"/>
      <line x1="41.429" y1="399.226" x2="25.899" y2="406.14"/>
      <line x1="34.343" y1="381.687" x2="18.369" y2="387.502"/>
      <line x1="28.498" y1="363.698" x2="12.157" y2="368.384"/>
      <line x1="23.922" y1="345.344" x2="7.293" y2="348.879"/>
      <line x1="20.637" y1="326.716" x2="3.803" y2="329.082"/>
      <line x1="18.66" y1="307.904" x2="1.702" y2="309.09"/>
      <line x1="18" y1="289" x2="1" y2="289"/>
      <line x1="18.66" y1="270.096" x2="1.702" y2="268.91"/>
      <line x1="20.637" y1="251.284" x2="3.803" y2="248.918"/>
      <line x1="23.922" y1="232.656" x2="7.293" y2="229.121"/>
      <line x1="28.498" y1="214.302" x2="12.157" y2="209.616"/>
      <line x1="34.343" y1="196.313" x2="18.369" y2="190.498"/>
      <line x1="41.429" y1="178.774" x2="25.899" y2="171.86"/>
      <line x1="49.721" y1="161.773" x2="34.711" y2="153.792"/>
      <line x1="59.179" y1="145.392" x2="44.762" y2="136.383"/>
      <line x1="69.756" y1="129.71" x2="56.003" y2="119.718"/>
      <line x1="81.402" y1="114.805" x2="68.379" y2="103.877"/>
      <line x1="94.059" y1="100.748" x2="81.83" y2="88.938"/>
      <line x1="107.666" y1="87.608" x2="96.29" y2="74.974"/>
      <line x1="122.156" y1="75.449" x2="111.689" y2="62.053"/>
      <line x1="137.459" y1="64.331" x2="127.952" y2="50.237"/>
      <line x1="153.5" y1="54.307" x2="145" y2="39.585"/>
      <line x1="170.201" y1="45.427" x2="162.749" y2="30.147"/>
      <line x1="187.482" y1="37.733" x2="181.113" y2="21.971"/>
      <line x1="205.256" y1="31.264" x2="200.003" y2="15.096"/>
      <line x1="223.439" y1="26.05" x2="219.326" y2="9.555"/>
      <line x1="241.941" y1="22.117" x2="238.989" y2="5.375"/>
      <line x1="260.673" y1="19.485" x2="258.896" y2="2.578"/>
      <line x1="279.542" y1="18.165" x2="278.949" y2="1.175"/>
      <line x1="298.458" y1="18.165" x2="299.051" y2="1.175"/>
      <line x1="317.327" y1="19.485" x2="319.104" y2="2.578"/>
      <line x1="336.059" y1="22.117" x2="339.011" y2="5.375"/>
      <line x1="354.561" y1="26.05" x2="358.674" y2="9.555"/>
      <line x1="372.744" y1="31.264" x2="377.997" y2="15.096"/>
      <line x1="390.518" y1="37.733" x2="396.887" y2="21.971"/>
      <line x1="407.799" y1="45.427" x2="415.251" y2="30.147"/>
      <line x1="424.5" y1="54.307" x2="433" y2="39.585"/>
      <line x1="440.541" y1="64.331" x2="450.048" y2="50.237"/>
      <line x1="455.844" y1="75.449" x2="466.311" y2="62.053"/>
      <line x1="470.334" y1="87.608" x2="481.71" y2="74.974"/>
      <line x1="483.941" y1="100.748" x2="496.17" y2="88.938"/>
      <line x1="496.598" y1="114.805" x2="509.621" y2="103.877"/>
      <line x1="508.244" y1="129.71" x2="521.997" y2="119.718"/>
      <line x1="518.821" y1="145.392" x2="533.238" y2="136.383"/>
      <line x1="528.279" y1="161.773" x2="543.289" y2="153.792"/>
      <line x1="536.571" y1="178.774" x2="552.101" y2="171.86"/>
      <line x1="543.657" y1="196.313" x2="559.631" y2="190.498"/>
      <line x1="549.502" y1="214.302" x2="565.843" y2="209.616"/>
      <line x1="554.078" y1="232.656" x2="570.707" y2="229.121"/>
      <line x1="557.363" y1="251.284" x2="574.197" y2="248.918"/>
      <line x1="559.34" y1="270.096" x2="576.298" y2="268.91"/>
    </g>

    <circle cx="289" cy="289" r="286.8" fill="none" stroke="#1174f0" stroke-width="4.4"/>

    <g fill="url(#cyanBand)">
      <path d="M 73.822 179.361 A 241.5 241.5 0 0 1 530.463 284.785 L 482.97 285.614 A 194 194 0 0 0 116.145 200.926 Z"/>
      <path d="M 532.161 314.557 A 244.5 244.5 0 0 1 517.26 376.621 L 472.915 359.598 A 197 197 0 0 0 484.921 309.592 Z"/>
      <path d="M 497.72 414.412 A 243.5 243.5 0 0 1 451.933 469.956 L 420.819 435.4 A 197 197 0 0 0 457.862 390.463 Z"/>
      <path d="M 424.045 489.213 A 241.5 241.5 0 0 1 359.608 519.948 L 346.89 478.348 A 198 198 0 0 0 399.72 453.149 Z"/>
      <path d="M 340.458 531.092 A 247.5 247.5 0 0 1 271.735 535.897 L 275.118 487.515 A 199 199 0 0 0 330.374 483.651 Z"/>
      <path d="M 241.775 531.953 A 247.5 247.5 0 0 1 172.806 507.53 L 195.575 464.707 A 199 199 0 0 0 251.029 484.344 Z"/>
      <path d="M 145.287 486.805 A 244.5 244.5 0 0 1 59.245 205.376 L 103.881 221.622 A 197 197 0 0 0 173.206 448.376 Z"/>
    </g>

    <circle cx="289" cy="289" r="151" fill="url(#coreGradient)" filter="url(#softInnerShadow)"/>

    <g filter="url(#cyanGlow)">
      <circle cx="289" cy="289" r="164" fill="none" stroke="#00fff9" stroke-width="27"/>
      <path fill="#00fff9" d="M 204 214 L 378 214 L 378 230 L 299 230 L 299 443 L 283 443 L 283 230 L 204 230 Z"/>
    </g>
  </g>
</svg>
